<mxfile host="app.diagrams.net" modified="2020-09-04T09:40:53.088Z" agent="5.0 (Windows NT 10.0; Win64; x64) AppleWebKit/537.36 (KHTML, like Gecko) Chrome/84.0.4147.89 Safari/537.36" etag="E3t7LjzMNbJd5LCg9uyl" version="13.6.5" type="github">
  <diagram id="prtHgNgQTEPvFCAcTncT" name="Page-1">
    <mxGraphModel dx="942" dy="614" grid="1" gridSize="10" guides="1" tooltips="1" connect="1" arrows="1" fold="1" page="1" pageScale="1" pageWidth="827" pageHeight="1169" math="0" shadow="0">
      <root>
        <mxCell id="0" />
        <mxCell id="1" parent="0" />
        <mxCell id="pWh_urYRy6vtT1U0Wa_L-1" value="" style="rounded=0;whiteSpace=wrap;html=1;fillColor=none;" parent="1" vertex="1">
          <mxGeometry x="80" y="20" width="660" height="390" as="geometry" />
        </mxCell>
        <mxCell id="pWh_urYRy6vtT1U0Wa_L-4" value="" style="endArrow=none;html=1;entryX=0;entryY=0.077;entryDx=0;entryDy=0;entryPerimeter=0;" parent="1" target="pWh_urYRy6vtT1U0Wa_L-1" edge="1">
          <mxGeometry width="50" height="50" relative="1" as="geometry">
            <mxPoint x="740" y="50" as="sourcePoint" />
            <mxPoint x="220" y="90" as="targetPoint" />
            <Array as="points">
              <mxPoint x="480" y="50" />
            </Array>
          </mxGeometry>
        </mxCell>
        <mxCell id="pWh_urYRy6vtT1U0Wa_L-5" value="数据采集同步流程图" style="text;html=1;strokeColor=none;fillColor=none;align=center;verticalAlign=middle;whiteSpace=wrap;rounded=0;strokeWidth=10;fontSize=15;" parent="1" vertex="1">
          <mxGeometry x="310" y="30" width="214" height="20" as="geometry" />
        </mxCell>
        <mxCell id="pWh_urYRy6vtT1U0Wa_L-6" value="" style="endArrow=none;html=1;fontSize=15;exitX=0.045;exitY=0.997;exitDx=0;exitDy=0;exitPerimeter=0;" parent="1" source="pWh_urYRy6vtT1U0Wa_L-1" edge="1">
          <mxGeometry width="50" height="50" relative="1" as="geometry">
            <mxPoint x="120" y="409" as="sourcePoint" />
            <mxPoint x="110" y="50" as="targetPoint" />
          </mxGeometry>
        </mxCell>
        <mxCell id="pWh_urYRy6vtT1U0Wa_L-10" value="数据库同步" style="text;html=1;strokeColor=none;fillColor=none;align=center;verticalAlign=middle;whiteSpace=wrap;rounded=0;fontSize=15;" parent="1" vertex="1">
          <mxGeometry x="80" y="160" width="30" height="80" as="geometry" />
        </mxCell>
        <mxCell id="pWh_urYRy6vtT1U0Wa_L-11" value="" style="endArrow=none;html=1;fontSize=15;entryX=1;entryY=0.154;entryDx=0;entryDy=0;entryPerimeter=0;" parent="1" target="pWh_urYRy6vtT1U0Wa_L-1" edge="1">
          <mxGeometry width="50" height="50" relative="1" as="geometry">
            <mxPoint x="110" y="80" as="sourcePoint" />
            <mxPoint x="500" y="250" as="targetPoint" />
          </mxGeometry>
        </mxCell>
        <mxCell id="pWh_urYRy6vtT1U0Wa_L-12" value="" style="endArrow=none;html=1;fontSize=15;entryX=0.047;entryY=1.05;entryDx=0;entryDy=0;entryPerimeter=0;exitX=0.362;exitY=0.997;exitDx=0;exitDy=0;exitPerimeter=0;" parent="1" source="pWh_urYRy6vtT1U0Wa_L-1" target="pWh_urYRy6vtT1U0Wa_L-5" edge="1">
          <mxGeometry width="50" height="50" relative="1" as="geometry">
            <mxPoint x="450" y="300" as="sourcePoint" />
            <mxPoint x="500" y="250" as="targetPoint" />
          </mxGeometry>
        </mxCell>
        <mxCell id="pWh_urYRy6vtT1U0Wa_L-13" value="" style="endArrow=none;html=1;fontSize=15;exitX=0.685;exitY=1;exitDx=0;exitDy=0;exitPerimeter=0;" parent="1" source="pWh_urYRy6vtT1U0Wa_L-1" edge="1">
          <mxGeometry width="50" height="50" relative="1" as="geometry">
            <mxPoint x="328.9200000000001" y="418.8299999999999" as="sourcePoint" />
            <mxPoint x="530" y="50" as="targetPoint" />
          </mxGeometry>
        </mxCell>
        <mxCell id="pWh_urYRy6vtT1U0Wa_L-14" value="调度系统" style="text;html=1;strokeColor=none;fillColor=none;align=center;verticalAlign=middle;whiteSpace=wrap;rounded=0;fontSize=15;" parent="1" vertex="1">
          <mxGeometry x="160" y="60" width="70" height="20" as="geometry" />
        </mxCell>
        <mxCell id="pWh_urYRy6vtT1U0Wa_L-15" value="数据源系统" style="text;html=1;strokeColor=none;fillColor=none;align=center;verticalAlign=middle;whiteSpace=wrap;rounded=0;fontSize=15;" parent="1" vertex="1">
          <mxGeometry x="600" y="60" width="90" height="20" as="geometry" />
        </mxCell>
        <mxCell id="pWh_urYRy6vtT1U0Wa_L-16" value="数据仓库" style="text;html=1;strokeColor=none;fillColor=none;align=center;verticalAlign=middle;whiteSpace=wrap;rounded=0;fontSize=15;" parent="1" vertex="1">
          <mxGeometry x="384" y="60" width="70" height="20" as="geometry" />
        </mxCell>
        <mxCell id="JumAm3pUxMZuPT-CD0Lh-1" value="&lt;font style=&quot;font-size: 12px&quot;&gt;开始&lt;/font&gt;" style="ellipse;whiteSpace=wrap;html=1;strokeWidth=1;fillColor=none;fontSize=15;spacing=2;" parent="1" vertex="1">
          <mxGeometry x="160" y="95" width="60" height="40" as="geometry" />
        </mxCell>
        <mxCell id="JumAm3pUxMZuPT-CD0Lh-2" value="&lt;font style=&quot;font-size: 12px&quot;&gt;数据库&lt;/font&gt;" style="rounded=0;whiteSpace=wrap;html=1;strokeWidth=1;fillColor=none;fontSize=15;" parent="1" vertex="1">
          <mxGeometry x="610" y="130" width="70" height="30" as="geometry" />
        </mxCell>
        <mxCell id="JumAm3pUxMZuPT-CD0Lh-3" value="" style="edgeStyle=elbowEdgeStyle;elbow=horizontal;endArrow=classic;html=1;fontSize=15;entryX=0;entryY=0.5;entryDx=0;entryDy=0;exitX=1;exitY=0.5;exitDx=0;exitDy=0;" parent="1" source="JumAm3pUxMZuPT-CD0Lh-6" target="JumAm3pUxMZuPT-CD0Lh-2" edge="1">
          <mxGeometry width="50" height="50" relative="1" as="geometry">
            <mxPoint x="225" y="120" as="sourcePoint" />
            <mxPoint x="275" y="70" as="targetPoint" />
            <Array as="points">
              <mxPoint x="400" y="160" />
            </Array>
          </mxGeometry>
        </mxCell>
        <mxCell id="JumAm3pUxMZuPT-CD0Lh-10" value="&lt;font style=&quot;font-size: 12px&quot;&gt;远程采集&lt;/font&gt;" style="edgeLabel;html=1;align=center;verticalAlign=middle;resizable=0;points=[];fontSize=15;" parent="JumAm3pUxMZuPT-CD0Lh-3" vertex="1" connectable="0">
          <mxGeometry x="0.2518" y="-4" relative="1" as="geometry">
            <mxPoint x="19" y="-14" as="offset" />
          </mxGeometry>
        </mxCell>
        <mxCell id="JumAm3pUxMZuPT-CD0Lh-6" value="&lt;font style=&quot;font-size: 12px&quot;&gt;定时调用同步脚本&lt;/font&gt;" style="rounded=0;whiteSpace=wrap;html=1;strokeWidth=1;fillColor=none;fontSize=15;" parent="1" vertex="1">
          <mxGeometry x="155" y="170" width="70" height="30" as="geometry" />
        </mxCell>
        <mxCell id="JumAm3pUxMZuPT-CD0Lh-7" value="" style="endArrow=classic;html=1;fontSize=15;exitX=0.5;exitY=1;exitDx=0;exitDy=0;" parent="1" source="JumAm3pUxMZuPT-CD0Lh-1" target="JumAm3pUxMZuPT-CD0Lh-6" edge="1">
          <mxGeometry width="50" height="50" relative="1" as="geometry">
            <mxPoint x="360" y="270" as="sourcePoint" />
            <mxPoint x="410" y="220" as="targetPoint" />
          </mxGeometry>
        </mxCell>
        <mxCell id="JumAm3pUxMZuPT-CD0Lh-11" value="&lt;font style=&quot;font-size: 12px&quot;&gt;是否成功&lt;/font&gt;" style="rhombus;whiteSpace=wrap;html=1;strokeWidth=1;fillColor=none;fontSize=15;" parent="1" vertex="1">
          <mxGeometry x="157.5" y="270" width="75" height="40" as="geometry" />
        </mxCell>
        <mxCell id="JumAm3pUxMZuPT-CD0Lh-15" value="" style="endArrow=classic;html=1;fontSize=15;edgeStyle=orthogonalEdgeStyle;entryX=0.5;entryY=0;entryDx=0;entryDy=0;exitX=0.5;exitY=1;exitDx=0;exitDy=0;" parent="1" source="JumAm3pUxMZuPT-CD0Lh-2" target="JumAm3pUxMZuPT-CD0Lh-11" edge="1">
          <mxGeometry width="50" height="50" relative="1" as="geometry">
            <mxPoint x="250" y="290" as="sourcePoint" />
            <mxPoint x="300" y="240" as="targetPoint" />
          </mxGeometry>
        </mxCell>
        <mxCell id="JumAm3pUxMZuPT-CD0Lh-17" value="" style="endArrow=classic;html=1;fontSize=15;entryX=0;entryY=0.5;entryDx=0;entryDy=0;" parent="1" edge="1">
          <mxGeometry width="50" height="50" relative="1" as="geometry">
            <mxPoint x="232.5" y="289.66" as="sourcePoint" />
            <mxPoint x="375" y="289.66" as="targetPoint" />
            <Array as="points" />
          </mxGeometry>
        </mxCell>
        <mxCell id="JumAm3pUxMZuPT-CD0Lh-21" value="&lt;font style=&quot;font-size: 12px&quot;&gt;是&lt;/font&gt;" style="edgeLabel;html=1;align=center;verticalAlign=middle;resizable=0;points=[];fontSize=15;" parent="JumAm3pUxMZuPT-CD0Lh-17" vertex="1" connectable="0">
          <mxGeometry x="-0.3043" relative="1" as="geometry">
            <mxPoint x="17.84" y="-9.66" as="offset" />
          </mxGeometry>
        </mxCell>
        <mxCell id="JumAm3pUxMZuPT-CD0Lh-20" value="&lt;font style=&quot;font-size: 12px&quot;&gt;Hive 数仓&lt;/font&gt;" style="rounded=0;whiteSpace=wrap;html=1;strokeWidth=1;fillColor=none;fontSize=15;" parent="1" vertex="1">
          <mxGeometry x="375" y="275" width="70" height="30" as="geometry" />
        </mxCell>
        <mxCell id="JumAm3pUxMZuPT-CD0Lh-22" value="" style="endArrow=classic;html=1;fontSize=15;exitX=0.5;exitY=1;exitDx=0;exitDy=0;entryX=0.5;entryY=0;entryDx=0;entryDy=0;" parent="1" source="JumAm3pUxMZuPT-CD0Lh-11" target="JumAm3pUxMZuPT-CD0Lh-23" edge="1">
          <mxGeometry width="50" height="50" relative="1" as="geometry">
            <mxPoint x="330" y="300" as="sourcePoint" />
            <mxPoint x="380" y="250" as="targetPoint" />
          </mxGeometry>
        </mxCell>
        <mxCell id="JumAm3pUxMZuPT-CD0Lh-24" value="&lt;font style=&quot;font-size: 12px&quot;&gt;否&lt;/font&gt;" style="edgeLabel;html=1;align=center;verticalAlign=middle;resizable=0;points=[];fontSize=15;" parent="JumAm3pUxMZuPT-CD0Lh-22" vertex="1" connectable="0">
          <mxGeometry x="-0.4667" y="1" relative="1" as="geometry">
            <mxPoint x="4" y="4" as="offset" />
          </mxGeometry>
        </mxCell>
        <mxCell id="JumAm3pUxMZuPT-CD0Lh-23" value="&lt;font style=&quot;font-size: 12px&quot;&gt;异常处理&lt;/font&gt;" style="rounded=1;whiteSpace=wrap;html=1;strokeWidth=1;fillColor=none;fontSize=15;" parent="1" vertex="1">
          <mxGeometry x="158.5" y="370" width="73" height="30" as="geometry" />
        </mxCell>
        <mxCell id="JumAm3pUxMZuPT-CD0Lh-26" value="&lt;font style=&quot;font-size: 12px&quot;&gt;结束&lt;/font&gt;" style="rounded=0;whiteSpace=wrap;html=1;strokeWidth=1;fillColor=none;fontSize=15;" parent="1" vertex="1">
          <mxGeometry x="375" y="370" width="70" height="30" as="geometry" />
        </mxCell>
        <mxCell id="JumAm3pUxMZuPT-CD0Lh-27" value="" style="endArrow=classic;html=1;fontSize=15;exitX=1;exitY=0.5;exitDx=0;exitDy=0;entryX=0;entryY=0.5;entryDx=0;entryDy=0;" parent="1" source="JumAm3pUxMZuPT-CD0Lh-23" target="JumAm3pUxMZuPT-CD0Lh-26" edge="1">
          <mxGeometry width="50" height="50" relative="1" as="geometry">
            <mxPoint x="260" y="410" as="sourcePoint" />
            <mxPoint x="310" y="360" as="targetPoint" />
          </mxGeometry>
        </mxCell>
        <mxCell id="JumAm3pUxMZuPT-CD0Lh-28" value="" style="endArrow=classic;html=1;fontSize=15;entryX=0.5;entryY=0;entryDx=0;entryDy=0;exitX=0.5;exitY=1;exitDx=0;exitDy=0;" parent="1" source="JumAm3pUxMZuPT-CD0Lh-20" target="JumAm3pUxMZuPT-CD0Lh-26" edge="1">
          <mxGeometry width="50" height="50" relative="1" as="geometry">
            <mxPoint x="350" y="370" as="sourcePoint" />
            <mxPoint x="400" y="320" as="targetPoint" />
          </mxGeometry>
        </mxCell>
        <mxCell id="A4urLGJuTzjjq3gdCbyF-1" value="&lt;span style=&quot;color: rgba(0 , 0 , 0 , 0) ; font-family: monospace ; font-size: 0px&quot;&gt;%3CmxGraphModel%3E%3Croot%3E%3CmxCell%20id%3D%220%22%2F%3E%3CmxCell%20id%3D%221%22%20parent%3D%220%22%2F%3E%3CmxCell%20id%3D%222%22%20value%3D%22%26lt%3Bfont%20style%3D%26quot%3Bfont-size%3A%2012px%26quot%3B%26gt%3B%E6%98%AF%E5%90%A6%E6%88%90%E5%8A%9F%26lt%3B%2Ffont%26gt%3B%22%20style%3D%22rhombus%3BwhiteSpace%3Dwrap%3Bhtml%3D1%3BstrokeWidth%3D1%3BfillColor%3Dnone%3BfontSize%3D15%3B%22%20vertex%3D%221%22%20parent%3D%221%22%3E%3CmxGeometry%20x%3D%22157.5%22%20y%3D%22270%22%20width%3D%2275%22%20height%3D%2240%22%20as%3D%22geometry%22%2F%3E%3C%2FmxCell%3E%3CmxCell%20id%3D%223%22%20value%3D%22%22%20style%3D%22endArrow%3Dclassic%3Bhtml%3D1%3BfontSize%3D15%3BexitX%3D0.5%3BexitY%3D1%3BexitDx%3D0%3BexitDy%3D0%3BentryX%3D0.5%3BentryY%3D0%3BentryDx%3D0%3BentryDy%3D0%3B%22%20edge%3D%221%22%20source%3D%222%22%20target%3D%225%22%20parent%3D%221%22%3E%3CmxGeometry%20width%3D%2250%22%20height%3D%2250%22%20relative%3D%221%22%20as%3D%22geometry%22%3E%3CmxPoint%20x%3D%22330%22%20y%3D%22300%22%20as%3D%22sourcePoint%22%2F%3E%3CmxPoint%20x%3D%22380%22%20y%3D%22250%22%20as%3D%22targetPoint%22%2F%3E%3C%2FmxGeometry%3E%3C%2FmxCell%3E%3CmxCell%20id%3D%224%22%20value%3D%22%26lt%3Bfont%20style%3D%26quot%3Bfont-size%3A%2012px%26quot%3B%26gt%3B%E5%90%A6%26lt%3B%2Ffont%26gt%3B%22%20style%3D%22edgeLabel%3Bhtml%3D1%3Balign%3Dcenter%3BverticalAlign%3Dmiddle%3Bresizable%3D0%3Bpoints%3D%5B%5D%3BfontSize%3D15%3B%22%20vertex%3D%221%22%20connectable%3D%220%22%20parent%3D%223%22%3E%3CmxGeometry%20x%3D%22-0.4667%22%20y%3D%221%22%20relative%3D%221%22%20as%3D%22geometry%22%3E%3CmxPoint%20x%3D%224%22%20y%3D%224%22%20as%3D%22offset%22%2F%3E%3C%2FmxGeometry%3E%3C%2FmxCell%3E%3CmxCell%20id%3D%225%22%20value%3D%22%26lt%3Bfont%20style%3D%26quot%3Bfont-size%3A%2012px%26quot%3B%26gt%3B%E5%BC%82%E5%B8%B8%E5%A4%84%E7%90%86%26lt%3B%2Ffont%26gt%3B%22%20style%3D%22rounded%3D1%3BwhiteSpace%3Dwrap%3Bhtml%3D1%3BstrokeWidth%3D1%3BfillColor%3Dnone%3BfontSize%3D15%3B%22%20vertex%3D%221%22%20parent%3D%221%22%3E%3CmxGeometry%20x%3D%22158.5%22%20y%3D%22370%22%20width%3D%2273%22%20height%3D%2230%22%20as%3D%22geometry%22%2F%3E%3C%2FmxCell%3E%3C%2Froot%3E%3C%2FmxGraphModel%3E&lt;/span&gt;" style="rounded=0;whiteSpace=wrap;html=1;fillColor=none;" vertex="1" parent="1">
          <mxGeometry x="87" y="440" width="660" height="390" as="geometry" />
        </mxCell>
        <mxCell id="A4urLGJuTzjjq3gdCbyF-2" value="" style="endArrow=none;html=1;entryX=0;entryY=0.077;entryDx=0;entryDy=0;entryPerimeter=0;" edge="1" parent="1" target="A4urLGJuTzjjq3gdCbyF-1">
          <mxGeometry width="50" height="50" relative="1" as="geometry">
            <mxPoint x="747" y="470" as="sourcePoint" />
            <mxPoint x="227" y="510" as="targetPoint" />
            <Array as="points">
              <mxPoint x="487" y="470" />
            </Array>
          </mxGeometry>
        </mxCell>
        <mxCell id="A4urLGJuTzjjq3gdCbyF-3" value="" style="endArrow=none;html=1;fontSize=15;exitX=0.045;exitY=0.997;exitDx=0;exitDy=0;exitPerimeter=0;" edge="1" parent="1" source="A4urLGJuTzjjq3gdCbyF-1">
          <mxGeometry width="50" height="50" relative="1" as="geometry">
            <mxPoint x="127" y="829" as="sourcePoint" />
            <mxPoint x="117" y="470" as="targetPoint" />
          </mxGeometry>
        </mxCell>
        <mxCell id="A4urLGJuTzjjq3gdCbyF-4" value="" style="endArrow=none;html=1;fontSize=15;entryX=1;entryY=0.154;entryDx=0;entryDy=0;entryPerimeter=0;" edge="1" parent="1" target="A4urLGJuTzjjq3gdCbyF-1">
          <mxGeometry width="50" height="50" relative="1" as="geometry">
            <mxPoint x="117" y="500" as="sourcePoint" />
            <mxPoint x="507" y="670" as="targetPoint" />
          </mxGeometry>
        </mxCell>
        <mxCell id="A4urLGJuTzjjq3gdCbyF-5" value="" style="endArrow=none;html=1;fontSize=15;entryX=0.047;entryY=1.05;entryDx=0;entryDy=0;entryPerimeter=0;exitX=0.362;exitY=0.997;exitDx=0;exitDy=0;exitPerimeter=0;" edge="1" parent="1" source="A4urLGJuTzjjq3gdCbyF-1">
          <mxGeometry width="50" height="50" relative="1" as="geometry">
            <mxPoint x="457" y="720" as="sourcePoint" />
            <mxPoint x="327.058" y="471" as="targetPoint" />
          </mxGeometry>
        </mxCell>
        <mxCell id="A4urLGJuTzjjq3gdCbyF-6" value="EDW层数据流程图" style="text;html=1;strokeColor=none;fillColor=none;align=center;verticalAlign=middle;whiteSpace=wrap;rounded=0;strokeWidth=10;fontSize=15;" vertex="1" parent="1">
          <mxGeometry x="303" y="450" width="214" height="20" as="geometry" />
        </mxCell>
        <mxCell id="A4urLGJuTzjjq3gdCbyF-7" value="调度系统" style="text;html=1;strokeColor=none;fillColor=none;align=center;verticalAlign=middle;whiteSpace=wrap;rounded=0;fontSize=15;" vertex="1" parent="1">
          <mxGeometry x="170" y="480" width="70" height="20" as="geometry" />
        </mxCell>
        <mxCell id="A4urLGJuTzjjq3gdCbyF-8" value="数据仓库" style="text;html=1;strokeColor=none;fillColor=none;align=center;verticalAlign=middle;whiteSpace=wrap;rounded=0;fontSize=15;" vertex="1" parent="1">
          <mxGeometry x="500" y="480" width="70" height="20" as="geometry" />
        </mxCell>
        <mxCell id="A4urLGJuTzjjq3gdCbyF-9" value="E&lt;br&gt;T&lt;br&gt;L&lt;br&gt;流程阶段" style="text;html=1;strokeColor=none;fillColor=none;align=center;verticalAlign=middle;whiteSpace=wrap;rounded=0;fontSize=15;" vertex="1" parent="1">
          <mxGeometry x="87" y="565" width="30" height="140" as="geometry" />
        </mxCell>
        <mxCell id="A4urLGJuTzjjq3gdCbyF-12" value="&lt;font style=&quot;font-size: 12px&quot;&gt;开始&lt;/font&gt;" style="ellipse;whiteSpace=wrap;html=1;strokeWidth=1;fillColor=none;fontSize=15;spacing=2;" vertex="1" parent="1">
          <mxGeometry x="167.5" y="515" width="60" height="40" as="geometry" />
        </mxCell>
        <mxCell id="A4urLGJuTzjjq3gdCbyF-13" value="&lt;font style=&quot;font-size: 12px&quot;&gt;定时调用ETL脚本&lt;/font&gt;" style="rounded=0;whiteSpace=wrap;html=1;strokeWidth=1;fillColor=none;fontSize=15;" vertex="1" parent="1">
          <mxGeometry x="147.5" y="577.5" width="100" height="35" as="geometry" />
        </mxCell>
        <mxCell id="A4urLGJuTzjjq3gdCbyF-14" value="" style="endArrow=classic;html=1;fontSize=15;exitX=0.5;exitY=1;exitDx=0;exitDy=0;" edge="1" parent="1" source="A4urLGJuTzjjq3gdCbyF-12" target="A4urLGJuTzjjq3gdCbyF-13">
          <mxGeometry width="50" height="50" relative="1" as="geometry">
            <mxPoint x="367.5" y="705" as="sourcePoint" />
            <mxPoint x="417.5" y="655" as="targetPoint" />
          </mxGeometry>
        </mxCell>
        <mxCell id="A4urLGJuTzjjq3gdCbyF-15" value="&lt;font style=&quot;font-size: 12px&quot;&gt;ODS表&lt;/font&gt;" style="rounded=0;whiteSpace=wrap;html=1;strokeWidth=1;fillColor=none;fontSize=15;" vertex="1" parent="1">
          <mxGeometry x="400" y="517.5" width="110" height="30" as="geometry" />
        </mxCell>
        <mxCell id="A4urLGJuTzjjq3gdCbyF-16" value="&lt;font style=&quot;font-size: 12px&quot;&gt;数据清洗、计算&lt;/font&gt;" style="rounded=0;whiteSpace=wrap;html=1;strokeWidth=1;fillColor=none;fontSize=15;" vertex="1" parent="1">
          <mxGeometry x="400" y="577.5" width="110" height="30" as="geometry" />
        </mxCell>
        <mxCell id="A4urLGJuTzjjq3gdCbyF-17" value="" style="endArrow=classic;html=1;fontSize=15;entryX=0.5;entryY=0;entryDx=0;entryDy=0;exitX=0.5;exitY=1;exitDx=0;exitDy=0;" edge="1" parent="1" source="A4urLGJuTzjjq3gdCbyF-15" target="A4urLGJuTzjjq3gdCbyF-16">
          <mxGeometry width="50" height="50" relative="1" as="geometry">
            <mxPoint x="475" y="615" as="sourcePoint" />
            <mxPoint x="525" y="565" as="targetPoint" />
          </mxGeometry>
        </mxCell>
        <mxCell id="A4urLGJuTzjjq3gdCbyF-24" value="" style="endArrow=classic;html=1;exitX=1;exitY=0.5;exitDx=0;exitDy=0;" edge="1" parent="1" source="A4urLGJuTzjjq3gdCbyF-13">
          <mxGeometry width="50" height="50" relative="1" as="geometry">
            <mxPoint x="270" y="630" as="sourcePoint" />
            <mxPoint x="400" y="595" as="targetPoint" />
          </mxGeometry>
        </mxCell>
        <mxCell id="A4urLGJuTzjjq3gdCbyF-27" value="&lt;font style=&quot;font-size: 12px&quot;&gt;维度转换、捕获&lt;/font&gt;" style="rounded=0;whiteSpace=wrap;html=1;strokeWidth=1;fillColor=none;fontSize=15;" vertex="1" parent="1">
          <mxGeometry x="400" y="637.5" width="110" height="30" as="geometry" />
        </mxCell>
        <mxCell id="A4urLGJuTzjjq3gdCbyF-31" value="" style="endArrow=classic;html=1;entryX=0.5;entryY=0;entryDx=0;entryDy=0;exitX=0.5;exitY=1;exitDx=0;exitDy=0;" edge="1" parent="1" source="A4urLGJuTzjjq3gdCbyF-16" target="A4urLGJuTzjjq3gdCbyF-27">
          <mxGeometry width="50" height="50" relative="1" as="geometry">
            <mxPoint x="400" y="710" as="sourcePoint" />
            <mxPoint x="450" y="660" as="targetPoint" />
          </mxGeometry>
        </mxCell>
        <mxCell id="A4urLGJuTzjjq3gdCbyF-32" value="&lt;span style=&quot;font-size: 12px&quot;&gt;主数据(维度表)&lt;/span&gt;" style="rounded=0;whiteSpace=wrap;html=1;strokeWidth=1;fillColor=none;fontSize=15;" vertex="1" parent="1">
          <mxGeometry x="580" y="637.5" width="110" height="30" as="geometry" />
        </mxCell>
        <mxCell id="A4urLGJuTzjjq3gdCbyF-33" value="" style="endArrow=classic;html=1;entryX=1;entryY=0.5;entryDx=0;entryDy=0;" edge="1" parent="1" target="A4urLGJuTzjjq3gdCbyF-27">
          <mxGeometry width="50" height="50" relative="1" as="geometry">
            <mxPoint x="580" y="653" as="sourcePoint" />
            <mxPoint x="590" y="740" as="targetPoint" />
          </mxGeometry>
        </mxCell>
        <mxCell id="A4urLGJuTzjjq3gdCbyF-34" value="&lt;font style=&quot;font-size: 12px&quot;&gt;EDW表&lt;/font&gt;" style="rounded=0;whiteSpace=wrap;html=1;strokeWidth=1;fillColor=none;fontSize=15;" vertex="1" parent="1">
          <mxGeometry x="570" y="700" width="110" height="27.5" as="geometry" />
        </mxCell>
        <mxCell id="A4urLGJuTzjjq3gdCbyF-40" value="&lt;font style=&quot;font-size: 12px&quot;&gt;是否成功&lt;/font&gt;" style="rhombus;whiteSpace=wrap;html=1;strokeWidth=1;fillColor=none;fontSize=15;" vertex="1" parent="1">
          <mxGeometry x="417.5" y="693.75" width="75" height="40" as="geometry" />
        </mxCell>
        <mxCell id="A4urLGJuTzjjq3gdCbyF-41" value="" style="endArrow=classic;html=1;fontSize=15;exitX=0.5;exitY=1;exitDx=0;exitDy=0;entryX=0.5;entryY=0;entryDx=0;entryDy=0;" edge="1" parent="1" source="A4urLGJuTzjjq3gdCbyF-40" target="A4urLGJuTzjjq3gdCbyF-43">
          <mxGeometry width="50" height="50" relative="1" as="geometry">
            <mxPoint x="590" y="757.5" as="sourcePoint" />
            <mxPoint x="640" y="707.5" as="targetPoint" />
          </mxGeometry>
        </mxCell>
        <mxCell id="A4urLGJuTzjjq3gdCbyF-42" value="&lt;font style=&quot;font-size: 12px&quot;&gt;否&lt;/font&gt;" style="edgeLabel;html=1;align=center;verticalAlign=middle;resizable=0;points=[];fontSize=15;" vertex="1" connectable="0" parent="A4urLGJuTzjjq3gdCbyF-41">
          <mxGeometry x="-0.4667" y="1" relative="1" as="geometry">
            <mxPoint x="4" y="4" as="offset" />
          </mxGeometry>
        </mxCell>
        <mxCell id="A4urLGJuTzjjq3gdCbyF-43" value="&lt;font style=&quot;font-size: 12px&quot;&gt;异常处理&lt;/font&gt;" style="rounded=1;whiteSpace=wrap;html=1;strokeWidth=1;fillColor=none;fontSize=15;" vertex="1" parent="1">
          <mxGeometry x="417.5" y="770" width="73" height="30" as="geometry" />
        </mxCell>
        <mxCell id="A4urLGJuTzjjq3gdCbyF-46" value="&lt;font style=&quot;font-size: 12px&quot;&gt;结束&lt;/font&gt;" style="rounded=0;whiteSpace=wrap;html=1;strokeWidth=1;fillColor=none;fontSize=15;" vertex="1" parent="1">
          <mxGeometry x="590" y="770" width="70" height="30" as="geometry" />
        </mxCell>
        <mxCell id="A4urLGJuTzjjq3gdCbyF-48" value="" style="endArrow=classic;html=1;entryX=0.5;entryY=0;entryDx=0;entryDy=0;exitX=0.5;exitY=1;exitDx=0;exitDy=0;" edge="1" parent="1" source="A4urLGJuTzjjq3gdCbyF-27" target="A4urLGJuTzjjq3gdCbyF-40">
          <mxGeometry width="50" height="50" relative="1" as="geometry">
            <mxPoint x="360" y="750" as="sourcePoint" />
            <mxPoint x="410" y="700" as="targetPoint" />
          </mxGeometry>
        </mxCell>
        <mxCell id="A4urLGJuTzjjq3gdCbyF-49" value="" style="endArrow=classic;html=1;exitX=1;exitY=0.5;exitDx=0;exitDy=0;entryX=0;entryY=0.5;entryDx=0;entryDy=0;" edge="1" parent="1" source="A4urLGJuTzjjq3gdCbyF-40" target="A4urLGJuTzjjq3gdCbyF-34">
          <mxGeometry width="50" height="50" relative="1" as="geometry">
            <mxPoint x="510" y="790" as="sourcePoint" />
            <mxPoint x="560" y="740" as="targetPoint" />
          </mxGeometry>
        </mxCell>
        <mxCell id="A4urLGJuTzjjq3gdCbyF-50" value="是" style="edgeLabel;html=1;align=center;verticalAlign=middle;resizable=0;points=[];" vertex="1" connectable="0" parent="A4urLGJuTzjjq3gdCbyF-49">
          <mxGeometry x="0.3548" relative="1" as="geometry">
            <mxPoint x="-9.5" y="-8.75" as="offset" />
          </mxGeometry>
        </mxCell>
        <mxCell id="A4urLGJuTzjjq3gdCbyF-51" value="" style="endArrow=classic;html=1;exitX=1;exitY=0.5;exitDx=0;exitDy=0;entryX=0;entryY=0.5;entryDx=0;entryDy=0;" edge="1" parent="1" source="A4urLGJuTzjjq3gdCbyF-43" target="A4urLGJuTzjjq3gdCbyF-46">
          <mxGeometry width="50" height="50" relative="1" as="geometry">
            <mxPoint x="520" y="800" as="sourcePoint" />
            <mxPoint x="570" y="750" as="targetPoint" />
          </mxGeometry>
        </mxCell>
        <mxCell id="A4urLGJuTzjjq3gdCbyF-52" value="" style="endArrow=classic;html=1;exitX=0.5;exitY=1;exitDx=0;exitDy=0;entryX=0.5;entryY=0;entryDx=0;entryDy=0;" edge="1" parent="1" source="A4urLGJuTzjjq3gdCbyF-34" target="A4urLGJuTzjjq3gdCbyF-46">
          <mxGeometry width="50" height="50" relative="1" as="geometry">
            <mxPoint x="530" y="810" as="sourcePoint" />
            <mxPoint x="580" y="760" as="targetPoint" />
          </mxGeometry>
        </mxCell>
      </root>
    </mxGraphModel>
  </diagram>
</mxfile>
